<?xml version="1.0" standalone="no"?>
<!DOCTYPE svg PUBLIC "-//W3C//DTD SVG 20010904//EN"
 "http://www.w3.org/TR/2001/REC-SVG-20010904/DTD/svg10.dtd">
<svg version="1.0" xmlns="http://www.w3.org/2000/svg"
 width="400.000000pt" height="400.000000pt" viewBox="0 0 400.000000 400.000000"
 preserveAspectRatio="xMidYMid meet">
<metadata>
Created by potrace 1.14, written by Peter Selinger 2001-2017
</metadata>
<g transform="translate(0.000000,400.000000) scale(0.100000,-0.100000)"
fill="#000000" stroke="none">
<path d="M809 3696 c-2 -2 -21 -7 -42 -10 -122 -19 -261 -92 -368 -193 -237
-224 -296 -581 -143 -874 55 -104 164 -222 256 -277 28 -16 29 -18 23 -77 -4
-33 -10 -79 -15 -103 -10 -58 -5 -290 9 -381 59 -385 262 -724 577 -962 50
-38 96 -69 102 -69 7 0 12 -4 12 -10 0 -5 5 -10 10 -10 6 0 27 -10 48 -23 106
-65 294 -133 457 -163 136 -26 372 -26 525 1 406 69 789 334 1002 690 98 163
170 354 193 506 2 19 9 60 13 91 5 32 8 115 8 187 l-1 129 42 27 c23 14 65 51
92 81 138 151 168 365 76 550 -101 206 -333 312 -558 255 l-72 -19 -66 62
c-36 35 -108 91 -159 125 -272 182 -544 263 -865 256 -71 -1 -170 -10 -220
-19 -88 -15 -215 -48 -234 -60 -5 -4 -27 14 -48 40 -82 98 -233 193 -368 230
-52 14 -276 30 -286 20z m204 -240 c132 -31 242 -106 318 -217 22 -33 51 -66
64 -75 32 -21 90 -15 180 20 189 72 468 92 675 47 251 -55 459 -169 640 -352
112 -113 129 -118 226 -69 114 59 228 44 314 -40 133 -129 91 -348 -80 -422
-78 -34 -86 -39 -104 -69 -15 -25 -17 -41 -10 -97 13 -106 8 -318 -10 -410
-94 -486 -467 -878 -938 -986 -168 -38 -394 -42 -548 -8 -472 103 -843 457
-959 917 -26 103 -34 178 -35 305 0 135 8 209 33 305 30 116 15 147 -96 205
-171 90 -271 244 -279 429 -4 101 9 161 51 247 101 207 337 321 558 270z"/>
<path d="M1840 2764 c-277 -60 -498 -258 -580 -519 -32 -104 -32 -101 -35
-223 -7 -253 96 -474 295 -627 150 -115 318 -169 505 -161 106 5 140 11 220
39 478 164 673 733 396 1157 -100 154 -288 290 -450 325 -11 3 -31 8 -43 11
-49 13 -244 12 -308 -2z"/>
</g>
</svg>
